<svg id="Group_33" data-name="Group 33" xmlns="http://www.w3.org/2000/svg" width="145.302" height="26.683" viewBox="0 0 145.302 26.683">
  <path id="Path_1_1_" d="M10.906,57.912l3.307-.48s.917-6.21-5.108-5.3S.658,62.921.658,62.921s-1.244,6.81,5.009,5.653a6.713,6.713,0,0,0,2.838-1.321,11.625,11.625,0,0,0,2.8-2.9L9.575,61.535s-4.769,6.832-5.566,2.608S11.266,50.905,10.906,57.912Z" transform="translate(-0.549 -46.78)" fill="#ea2231"/>
  <path id="Path_2_1_" d="M24.672,54.924a3.779,3.779,0,0,0-3.732-2.794,8.58,8.58,0,0,0-6.122,3.078L16,58.373a11.189,11.189,0,0,1,3.918-2.859,1.621,1.621,0,0,1,1.975,1.157,1.712,1.712,0,0,1,.055.4c.011.775-.087,1.735-.6,1.746,0,0-9.56-1.08-9.713,5.653-.12,5.228,4.605,4.3,6.734,3.623a5.465,5.465,0,0,0,1.921-1.07,13.7,13.7,0,0,0,4.289-7.268A10.8,10.8,0,0,0,24.672,54.924Zm-4.1,6.57c-.8,1.473-3.34,5.686-5.348,3.678-2.041-2.03,3.329-3.591,5.075-4.038a.251.251,0,0,1,.306.164.3.3,0,0,1-.033.2Z" transform="translate(0.462 -46.772)" fill="#ea2231"/>
  <path id="Path_3_1_" d="M63.042,54.924a3.779,3.779,0,0,0-3.732-2.794,8.58,8.58,0,0,0-6.122,3.078l1.179,3.165a11.189,11.189,0,0,1,3.918-2.859,1.621,1.621,0,0,1,1.975,1.157,1.712,1.712,0,0,1,.055.4c.011.775-.087,1.735-.6,1.746,0,0-9.571-1.08-9.713,5.653-.12,5.228,4.605,4.3,6.734,3.623a5.465,5.465,0,0,0,1.921-1.07,13.613,13.613,0,0,0,4.278-7.268A10.646,10.646,0,0,0,63.042,54.924Zm-4.1,6.57c-.8,1.473-3.34,5.686-5.348,3.678-2.041-2.03,3.329-3.591,5.075-4.038a.251.251,0,0,1,.306.164.248.248,0,0,1-.033.2Z" transform="translate(3.967 -46.772)" fill="#ea2231"/>
  <path id="Path_4_1_" d="M104.482,54.924a3.779,3.779,0,0,0-3.732-2.794,8.58,8.58,0,0,0-6.122,3.078l1.179,3.165a11.152,11.152,0,0,1,3.918-2.859A1.621,1.621,0,0,1,101.7,56.67a1.638,1.638,0,0,1,.055.4c.011.775-.087,1.735-.6,1.746,0,0-9.571-1.08-9.713,5.653-.087,3.7,2.259,4.311,4.4,4.114a8.588,8.588,0,0,0,5.806-3.176,13.929,13.929,0,0,0,2.739-5.653A10.8,10.8,0,0,0,104.482,54.924Zm-4.1,6.57c-.8,1.473-3.329,5.686-5.359,3.678-2.041-2.03,3.329-3.591,5.075-4.038a.251.251,0,0,1,.306.164.245.245,0,0,1-.022.2Z" transform="translate(7.753 -46.772)" fill="#ea2231"/>
  <path id="Path_5_1_" d="M38.018,55.754a3.593,3.593,0,0,0-2.6-3.3c-4.671-1.331-8.076,3.929-8.076,3.929s-3.045,4.911-2.39,9.08,5.915,1.266,5.915,1.266c-3.82,6.657-7.05,1.2-7.05,1.2l-2.15,1.877s1.31,4.627,6.766,2.772S36.665,61.7,36.665,61.7A13.339,13.339,0,0,0,38.018,55.754Zm-8.982,8.927c-2.521-.775,1.266-8.24,4.278-9.1a1,1,0,0,1,1.2.709.856.856,0,0,1,.022.371C34.2,59.214,32.758,65.827,29.037,64.681Z" transform="translate(1.379 -46.761)" fill="#ea2231"/>
  <path id="Path_6_1_" d="M33.333,47.22,31.74,49.643a4.349,4.349,0,0,0,6.1.808c.131-.109.262-.218.382-.338L38.6,47.5S34.523,50.68,33.333,47.22Z" transform="translate(2.299 -47.22)" fill="#ea2231"/>
  <path id="Path_7_1_" d="M117.818,55.754a3.593,3.593,0,0,0-2.6-3.3c-4.671-1.331-8.087,3.929-8.087,3.929s-3.045,4.911-2.39,9.08,5.915,1.266,5.915,1.266c-3.82,6.657-7.05,1.2-7.05,1.2l-2.139,1.877s1.31,4.627,6.766,2.772S116.465,61.7,116.465,61.7A13.339,13.339,0,0,0,117.818,55.754Zm-8.993,8.927c-2.521-.775,1.266-8.24,4.278-9.1a1,1,0,0,1,1.2.709.856.856,0,0,1,.022.371C114,59.214,112.558,65.827,108.826,64.681Z" transform="translate(8.669 -46.761)" fill="#ea2231"/>
  <path id="Path_8_1_" d="M113.133,47.22l-1.593,2.423a4.349,4.349,0,0,0,6.1.808c.131-.109.262-.218.382-.338l.371-2.608C118.4,47.5,114.323,50.68,113.133,47.22Z" transform="translate(9.589 -47.22)" fill="#ea2231"/>
  <path id="Path_9_1_" d="M72.266,57.682l3.176-.982s-.72-7.006-7.5-3.831c0,0-3.274,1.506-2.7,4.846a5.277,5.277,0,0,0,1.626,2.892c1.277,1.211,3.449,3.721.655,4.7C63.8,66.62,64.681,62.4,64.681,62.4L61.44,63.772s-.1,4.5,4.267,4.966A6.4,6.4,0,0,0,70.64,67.3a5.588,5.588,0,0,0,1.844-4.464,2.432,2.432,0,0,0-.633-1.626c-.906-.982-2.39-2.565-2.783-3.1-.164-.415-1.2-2.892,2.194-3.012C71.251,55.1,72.888,55,72.266,57.682Z" transform="translate(5.012 -46.779)" fill="#ea2231"/>
  <path id="Path_10_1_" d="M65.343,67.9l.949,2.488a6.815,6.815,0,0,1-3.481,1.626l-.971-2.75A3.636,3.636,0,0,0,65.343,67.9Z" transform="translate(5.049 -45.331)" fill="#ea2231"/>
  <path id="Path_11_1_" d="M4.053,67.9,5,70.388a6.815,6.815,0,0,1-3.481,1.626L.55,69.264A3.636,3.636,0,0,0,4.053,67.9Z" transform="translate(-0.55 -45.331)" fill="#ea2231"/>
  <path id="Path_12_1_" d="M87.11,48.54,78.27,68.719h3.765L85.571,60.4l.917,8.316h3.5l-1.473-8.578,6.122-4.682L93.4,52.371l-7.1,6.035,4.453-9.855Z" transform="translate(6.55 -47.099)" fill="#ea2231"/>
  <path id="Path_13_1_" d="M122.257,52.24h3.6l-7.006,16.2H115.12Z" transform="translate(9.916 -46.761)" fill="#ea2231"/>
  <path id="Path_14_1_" d="M129.864,48.96l-1.6,3.9h-1.932l-1.08,2.587h2l-3.6,8.021s-2.226,6.221,3.831,5.009l1.211-2.587s-2.619.688-1.637-2.423l3.569-8.152H133.4l1.244-2.761h-2.783L133.4,48.96Z" transform="translate(10.658 -47.061)" fill="#ea2231"/>
  <path id="Path_15_1_" d="M51.655,48.3,49.2,54.718s-2.958-5.7-8.578,1.19c-3.481,4.256-3.394,7.923-2.827,10.106a3.924,3.924,0,0,0,3.372,2.936c1.844.175,4.431-.469,6.755-4.213,4.191-6.745,7.367-16.447,7.367-16.447ZM41.647,65.239c-2.521-.775,1.266-8.24,4.278-9.1a1,1,0,0,1,1.2.709.856.856,0,0,1,.022.371c-.327,2.565-1.768,9.167-5.5,8.021Z" transform="translate(2.825 -47.122)" fill="#ea2231"/>
</svg>
